<mxfile host="app.diagrams.net" modified="2023-06-06T18:29:25.664Z" agent="Mozilla/5.0 (Macintosh; Intel Mac OS X 10.15; rv:102.0) Gecko/20100101 Firefox/102.0" version="21.3.6" etag="KsHM1wrZ2FUkCqshHdlQ" type="github">
  <diagram name="Page-1" id="nLnYdnGRIEgGsuUah77M">
    <mxGraphModel>
      <root>
        <mxCell id="0" />
        <mxCell id="1" parent="0" />
      </root>
    </mxGraphModel>
  </diagram>
</mxfile>
